HIERARCHY
ROOT Hips
{
	OFFSET 0.000000 100.481300 0.000000
	CHANNELS 6 Xposition Yposition Zposition Xrotation Yrotation Zrotation
	JOINT Spine
	{
		OFFSET -0.279200 12.230698 -2.892100
		CHANNELS 3 Xrotation Yrotation Zrotation
		JOINT Spine1
		{
			OFFSET -0.325700 14.269203 -3.374200
			CHANNELS 3 Xrotation Yrotation Zrotation
			JOINT Spine2
			{
				OFFSET -0.372300 16.307602 -0.352600
				CHANNELS 3 Xrotation Yrotation Zrotation
				JOINT Neck
				{
					OFFSET -0.418800 17.814194 8.416900
					CHANNELS 3 Xrotation Yrotation Zrotation
					JOINT Head
					{
						OFFSET 0.000000 7.031097 3.806800
						CHANNELS 3 Xrotation Yrotation Zrotation
						JOINT HeadTop_End
						{
							OFFSET 0.000000 24.646606 12.978600
							CHANNELS 3 Xrotation Yrotation Zrotation
							End Site
							{
								OFFSET 0.000000 27.854965 0.000000
							}
						}
					}
				}
				JOINT LeftShoulder
				{
					OFFSET 16.952999 14.495407 -7.737500
					CHANNELS 3 Xrotation Yrotation Zrotation
					JOINT LeftArm
					{
						OFFSET 9.308998 -2.777710 0.208600
						CHANNELS 3 Xrotation Yrotation Zrotation
						JOINT LeftForeArm
						{
							OFFSET 29.972298 0.000000 0.000000
							CHANNELS 3 Xrotation Yrotation Zrotation
							JOINT LeftHand
							{
								OFFSET 26.026505 0.000000 0.000000
								CHANNELS 3 Xrotation Yrotation Zrotation
								JOINT LeftHandThumb1
								{
									OFFSET 12.240501 -7.147949 9.207150
									CHANNELS 3 Xrotation Yrotation Zrotation
									JOINT LeftHandThumb2
									{
										OFFSET 4.138618 -2.389435 2.389433
										CHANNELS 3 Xrotation Yrotation Zrotation
										JOINT LeftHandThumb3
										{
											OFFSET 2.726913 -1.574387 1.574386
											CHANNELS 3 Xrotation Yrotation Zrotation
											JOINT LeftHandThumb4
											{
												OFFSET 3.941010 -2.275345 2.275342
												CHANNELS 3 Xrotation Yrotation Zrotation
												End Site
												{
													OFFSET -0.005798 5.087799 0.009903
												}
											}
										}
									}
								}
								JOINT LeftHandIndex1
								{
									OFFSET 24.424698 -1.985611 5.953459
									CHANNELS 3 Xrotation Yrotation Zrotation
									JOINT LeftHandIndex2
									{
										OFFSET 6.426697 0.000000 0.000000
										CHANNELS 3 Xrotation Yrotation Zrotation
										JOINT LeftHandIndex3
										{
											OFFSET 5.337898 0.000000 0.000000
											CHANNELS 3 Xrotation Yrotation Zrotation
											JOINT LeftHandIndex4
											{
												OFFSET 4.409401 0.000000 0.000000
												CHANNELS 3 Xrotation Yrotation Zrotation
												End Site
												{
													OFFSET 0.000000 4.409363 0.014373
												}
											}
										}
									}
								}
								JOINT LeftHandMiddle1
								{
									OFFSET 23.810104 0.000000 0.000000
									CHANNELS 3 Xrotation Yrotation Zrotation
									JOINT LeftHandMiddle2
									{
										OFFSET 7.176498 0.000000 0.000000
										CHANNELS 3 Xrotation Yrotation Zrotation
										JOINT LeftHandMiddle3
										{
											OFFSET 6.774902 0.000000 0.000000
											CHANNELS 3 Xrotation Yrotation Zrotation
											JOINT LeftHandMiddle4
											{
												OFFSET 5.403328 0.000000 0.000000
												CHANNELS 3 Xrotation Yrotation Zrotation
												End Site
												{
													OFFSET -0.027702 5.403244 0.017414
												}
											}
										}
									}
								}
								JOINT LeftHandRing1
								{
									OFFSET 22.908401 -0.839279 -6.020567
									CHANNELS 3 Xrotation Yrotation Zrotation
									JOINT LeftHandRing2
									{
										OFFSET 6.337502 0.000000 0.000000
										CHANNELS 3 Xrotation Yrotation Zrotation
										JOINT LeftHandRing3
										{
											OFFSET 5.779297 0.000000 0.000000
											CHANNELS 3 Xrotation Yrotation Zrotation
											JOINT LeftHandRing4
											{
												OFFSET 4.965698 0.000000 0.000000
												CHANNELS 3 Xrotation Yrotation Zrotation
												End Site
												{
													OFFSET 0.000000 4.965668 0.016186
												}
											}
										}
									}
								}
								JOINT LeftHandPinky1
								{
									OFFSET 20.037003 -1.530319 -10.950146
									CHANNELS 3 Xrotation Yrotation Zrotation
									JOINT LeftHandPinky2
									{
										OFFSET 5.254700 0.000000 0.000000
										CHANNELS 3 Xrotation Yrotation Zrotation
										JOINT LeftHandPinky3
										{
											OFFSET 4.810204 0.000000 0.000000
											CHANNELS 3 Xrotation Yrotation Zrotation
											JOINT LeftHandPinky4
											{
												OFFSET 3.647202 0.000000 0.000000
												CHANNELS 3 Xrotation Yrotation Zrotation
												End Site
												{
													OFFSET 0.000000 3.647186 0.011889
												}
											}
										}
									}
								}
							}
						}
					}
				}
				JOINT RightShoulder
				{
					OFFSET -15.141001 14.495407 -7.737500
					CHANNELS 3 Xrotation Yrotation Zrotation
					JOINT RightArm
					{
						OFFSET -9.308998 -2.777710 0.208500
						CHANNELS 3 Xrotation Yrotation Zrotation
						JOINT RightForeArm
						{
							OFFSET -29.972300 0.000000 0.000000
							CHANNELS 3 Xrotation Yrotation Zrotation
							JOINT RightHand
							{
								OFFSET -26.026505 0.000000 0.000000
								CHANNELS 3 Xrotation Yrotation Zrotation
								JOINT RightHandThumb1
								{
									OFFSET -12.240601 -7.148026 9.207092
									CHANNELS 3 Xrotation Yrotation Zrotation
									JOINT RightHandThumb2
									{
										OFFSET -4.138618 -2.389435 2.389433
										CHANNELS 3 Xrotation Yrotation Zrotation
										JOINT RightHandThumb3
										{
											OFFSET -2.726974 -1.574417 1.574421
											CHANNELS 3 Xrotation Yrotation Zrotation
											JOINT RightHandThumb4
											{
												OFFSET -3.941010 -2.275345 2.275343
												CHANNELS 3 Xrotation Yrotation Zrotation
												End Site
												{
													OFFSET 0.005814 5.087799 0.009927
												}
											}
										}
									}
								}
								JOINT RightHandIndex1
								{
									OFFSET -24.424698 -1.985657 5.953444
									CHANNELS 3 Xrotation Yrotation Zrotation
									JOINT RightHandIndex2
									{
										OFFSET -6.426697 0.000000 0.000000
										CHANNELS 3 Xrotation Yrotation Zrotation
										JOINT RightHandIndex3
										{
											OFFSET -5.337898 0.000000 0.000000
											CHANNELS 3 Xrotation Yrotation Zrotation
											JOINT RightHandIndex4
											{
												OFFSET -4.409401 0.000000 0.000000
												CHANNELS 3 Xrotation Yrotation Zrotation
												End Site
												{
													OFFSET 0.000000 4.409363 0.014408
												}
											}
										}
									}
								}
								JOINT RightHandMiddle1
								{
									OFFSET -23.810097 0.000000 0.000000
									CHANNELS 3 Xrotation Yrotation Zrotation
									JOINT RightHandMiddle2
									{
										OFFSET -7.176498 0.000000 0.000000
										CHANNELS 3 Xrotation Yrotation Zrotation
										JOINT RightHandMiddle3
										{
											OFFSET -6.774902 0.000000 0.000000
											CHANNELS 3 Xrotation Yrotation Zrotation
											JOINT RightHandMiddle4
											{
												OFFSET -5.403328 0.000000 0.000000
												CHANNELS 3 Xrotation Yrotation Zrotation
												End Site
												{
													OFFSET 0.027702 5.403244 0.017457
												}
											}
										}
									}
								}
								JOINT RightHandRing1
								{
									OFFSET -22.908302 -0.839325 -6.020576
									CHANNELS 3 Xrotation Yrotation Zrotation
									JOINT RightHandRing2
									{
										OFFSET -6.337502 0.000000 0.000000
										CHANNELS 3 Xrotation Yrotation Zrotation
										JOINT RightHandRing3
										{
											OFFSET -5.779297 0.000000 0.000000
											CHANNELS 3 Xrotation Yrotation Zrotation
											JOINT RightHandRing4
											{
												OFFSET -4.965698 0.000000 0.000000
												CHANNELS 3 Xrotation Yrotation Zrotation
												End Site
												{
													OFFSET 0.000000 4.965668 0.016226
												}
											}
										}
									}
								}
								JOINT RightHandPinky1
								{
									OFFSET -20.037003 -1.530334 -10.950259
									CHANNELS 3 Xrotation Yrotation Zrotation
									JOINT RightHandPinky2
									{
										OFFSET -5.254700 0.000000 0.000000
										CHANNELS 3 Xrotation Yrotation Zrotation
										JOINT RightHandPinky3
										{
											OFFSET -4.810204 0.000000 0.000000
											CHANNELS 3 Xrotation Yrotation Zrotation
											JOINT RightHandPinky4
											{
												OFFSET -3.647202 0.000000 0.000000
												CHANNELS 3 Xrotation Yrotation Zrotation
												End Site
												{
													OFFSET 0.000000 3.647186 0.011917
												}
											}
										}
									}
								}
							}
						}
					}
				}
			}
		}
	}
	JOINT LeftUpLeg
	{
		OFFSET 15.427100 -6.655098 0.678600
		CHANNELS 3 Xrotation Yrotation Zrotation
		JOINT LeftLeg
		{
			OFFSET 4.081073 -39.591068 13.024000
			CHANNELS 3 Xrotation Yrotation Zrotation
			JOINT LeftFoot
			{
				OFFSET -4.081074 -37.707932 -15.979700
				CHANNELS 3 Xrotation Yrotation Zrotation
				JOINT LeftToeBase
				{
					OFFSET 5.346399 -15.068900 20.645000
					CHANNELS 3 Xrotation Yrotation Zrotation
					JOINT LeftToe_End
					{
						OFFSET 2.754700 0.931300 11.300900
						CHANNELS 3 Xrotation Yrotation Zrotation
						End Site
						{
							OFFSET 0.000000 11.669021 0.000000
						}
					}
				}
			}
		}
	}
	JOINT RightUpLeg
	{
		OFFSET -15.569500 -6.655098 0.678600
		CHANNELS 3 Xrotation Yrotation Zrotation
		JOINT RightLeg
		{
			OFFSET -4.081825 -39.591045 13.023800
			CHANNELS 3 Xrotation Yrotation Zrotation
			JOINT RightFoot
			{
				OFFSET 4.081824 -37.707954 -15.979600
				CHANNELS 3 Xrotation Yrotation Zrotation
				JOINT RightToeBase
				{
					OFFSET -5.346400 -15.068900 20.645000
					CHANNELS 3 Xrotation Yrotation Zrotation
					JOINT RightToe_End
					{
						OFFSET -2.754700 0.931300 11.300900
						CHANNELS 3 Xrotation Yrotation Zrotation
						End Site
						{
							OFFSET 0.000000 11.669021 0.000000
						}
					}
				}
			}
		}
	}
}
MOTION
Frames: 4
Frame Time: 0.033333
9.236910 80.122963 112.510849 -7.693874 0.090058 -7.606310 15.081572 -14.041405 3.047986 7.495298 -4.061948 4.648193 7.595449 -4.103463 4.534061 -2.570578 2.787094 1.609864 1.925935 17.104670 -7.997998 0.000000 -0.000000 -0.000000 5.308661 -14.836025 2.679321 -38.378543 10.391848 -25.130680 -0.000075 -75.680040 -0.000081 -42.212260 -20.877525 -10.068958 -1.627876 3.481535 7.547011 4.622410 16.314697 1.369017 -0.194051 5.748420 2.950056 -0.000001 -0.000000 -0.000000 0.034789 0.692673 -5.749530 0.034787 0.692658 -5.749535 0.008685 0.346766 -2.874655 0.000000 -0.000001 -0.000001 0.034597 0.690757 -5.733549 0.034972 0.694569 -5.765512 0.008691 0.346760 -2.874659 -0.000003 0.000000 0.000002 0.034789 0.692673 -5.749528 0.034784 0.692658 -5.749537 0.008683 0.346766 -2.874656 0.000001 -0.000000 0.000004 0.423971 4.728279 -5.257533 0.022940 -3.361935 -6.257725 0.008686 0.346760 -2.874659 0.000000 0.000002 0.000002 4.618321 18.208991 7.064714 -20.492309 -18.650416 50.650371 0.000061 78.671260 -0.000087 -13.291734 -6.008072 -6.395483 -1.846989 -3.340673 -6.548756 5.119885 -13.941098 -0.598922 -1.023823 -2.509181 -2.381914 0.000001 -0.000001 -0.000000 0.035038 -0.698650 5.742685 -0.000005 0.000006 0.000004 -0.000001 -0.000000 -0.000002 0.000000 0.000001 0.000001 0.035039 -0.698650 5.742686 -0.000014 0.000007 0.000025 0.000007 0.000003 -0.000007 0.000000 0.000003 0.000002 0.035047 -0.698647 5.742682 -0.000014 0.000009 0.000002 -0.000001 -0.000001 0.000002 -0.000000 -0.000001 -0.000001 0.035038 -0.698650 5.742686 -0.000013 0.000009 0.000024 0.000003 0.000005 -0.000005 -0.000000 0.000001 0.000000 10.839103 12.757506 27.694037 37.299660 -5.477127 -3.176140 -36.775907 7.392330 -15.023681 -9.895959 -0.000015 -0.000002 -0.000000 -0.000001 0.000000 -39.037571 -1.708998 -15.790632 20.742718 -8.630549 -0.046160 2.243698 -20.395828 0.720219 -2.306143 -0.000017 -0.000001 0.000003 -0.000001 -0.000001 
8.037868 78.725670 116.140533 -6.474677 0.984069 -6.652192 15.075983 -14.080626 3.445059 7.907469 -3.966760 4.579645 8.011882 -4.016290 4.438610 -5.370337 2.839025 1.705028 -4.540083 17.344702 -6.348053 -0.000001 -0.000000 -0.000000 5.524333 -15.720292 2.239560 -39.095439 8.093854 -25.407745 0.000101 -76.436811 0.000120 -44.274065 -21.668825 -12.899298 -1.627877 3.481534 7.547006 4.622411 16.314697 1.369015 -0.194047 5.748422 2.950056 -0.000000 0.000001 0.000002 0.034786 0.692673 -5.749535 0.034784 0.692657 -5.749534 0.008688 0.346765 -2.874659 -0.000000 -0.000000 -0.000001 0.034596 0.690755 -5.733557 0.034968 0.694568 -5.765516 0.008687 0.346764 -2.874650 0.000002 0.000002 0.000001 0.034786 0.692673 -5.749536 0.034785 0.692661 -5.749529 0.008685 0.346765 -2.874662 -0.000000 -0.000002 0.000004 0.423969 4.728278 -5.257536 0.022937 -3.361929 -6.257724 0.008685 0.346764 -2.874663 -0.000002 0.000001 -0.000002 4.383363 17.237198 7.388170 -20.195024 -19.954603 49.415223 0.000082 79.231677 -0.000101 -13.855345 -6.124075 -6.419096 -1.846990 -3.340674 -6.548765 5.119885 -13.941098 -0.598918 -1.023824 -2.509182 -2.381913 -0.000005 0.000003 -0.000002 0.035037 -0.698649 5.742679 -0.000006 0.000012 0.000008 0.000001 0.000000 -0.000000 0.000000 -0.000001 -0.000002 0.035037 -0.698649 5.742680 -0.000014 0.000006 0.000023 0.000006 0.000002 -0.000006 0.000000 0.000003 0.000001 0.035047 -0.698648 5.742679 -0.000013 0.000009 0.000004 0.000002 -0.000002 -0.000003 0.000000 -0.000002 -0.000001 0.035037 -0.698649 5.742680 -0.000013 0.000008 0.000023 0.000003 0.000004 -0.000006 -0.000001 -0.000001 0.000002 11.989195 12.162972 28.237230 37.611810 -6.536934 -3.084795 -36.175130 8.373535 -17.163383 -13.126496 0.000002 -0.000007 0.000000 -0.000000 0.000000 -39.880932 -0.430044 -16.438023 17.798472 -8.734083 0.340117 5.977306 -18.754648 2.724187 -1.650623 -0.000002 0.000001 0.000002 -0.000001 -0.000001 
6.491026 77.487144 120.063858 -4.350533 1.864715 -5.244671 15.416077 -14.099992 4.343147 7.606225 -4.002810 4.229857 7.692844 -4.044193 4.105667 -8.206327 2.970252 1.707810 -11.677322 18.081092 -5.957295 -0.000000 -0.000000 -0.000000 5.734472 -16.597100 1.826346 -38.832877 6.784460 -25.962661 -0.000022 -77.598449 -0.000033 -45.711065 -21.929559 -15.320741 -1.627877 3.481537 7.547003 4.622409 16.314692 1.369014 -0.194050 5.748421 2.950055 -0.000000 -0.000000 -0.000001 0.034788 0.692672 -5.749535 0.034785 0.692660 -5.749532 0.008686 0.346766 -2.874657 -0.000003 0.000001 -0.000000 0.034598 0.690752 -5.733557 0.034974 0.694568 -5.765508 0.008692 0.346764 -2.874654 0.000003 -0.000001 -0.000003 0.034788 0.692672 -5.749535 0.034783 0.692662 -5.749535 0.008684 0.346769 -2.874657 -0.000002 -0.000001 0.000001 0.423972 4.728277 -5.257533 0.022940 -3.361934 -6.257722 0.008683 0.346763 -2.874659 0.000000 0.000001 -0.000001 4.301992 16.861265 7.452027 -20.081154 -21.315431 48.065629 0.000249 78.709153 -0.000272 -14.323666 -5.844271 -6.359942 -1.846989 -3.340674 -6.548766 5.119890 -13.941094 -0.598913 -1.023825 -2.509184 -2.381916 0.000001 0.000000 -0.000002 0.035037 -0.698646 5.742680 -0.000005 0.000009 0.000005 0.000001 -0.000001 -0.000003 -0.000000 -0.000001 0.000000 0.035038 -0.698646 5.742676 -0.000011 0.000008 0.000022 0.000010 0.000001 -0.000004 0.000001 -0.000002 -0.000001 0.035046 -0.698647 5.742679 -0.000013 0.000011 0.000009 0.000000 -0.000000 0.000001 0.000002 -0.000000 -0.000004 0.035037 -0.698646 5.742676 -0.000011 0.000008 0.000022 0.000002 0.000004 -0.000002 -0.000002 0.000000 0.000000 12.353885 11.315555 28.432589 37.776082 -7.014185 -2.755662 -34.166444 9.487572 -19.804419 -17.871600 0.000002 -0.000002 -0.000001 0.000000 0.000000 -41.430018 3.773074 -19.236046 16.563444 -8.326946 2.795688 17.666399 -16.637849 9.482563 -1.103459 -0.000004 -0.000003 -0.000000 -0.000001 0.000000 
4.323371 75.674210 124.712448 -1.759142 3.004589 -3.723497 15.830048 -14.730078 5.391798 7.062990 -4.179085 3.988342 7.135112 -4.200972 3.892448 -10.422839 3.269593 1.776007 -19.381599 19.966192 -6.231919 0.000001 0.000000 0.000000 5.989474 -17.559192 1.599222 -37.583580 7.131586 -26.539168 -0.000029 -79.097928 -0.000027 -46.532983 -21.857594 -17.620997 -1.627879 3.481539 7.547010 4.622408 16.314694 1.369021 -0.194048 5.748422 2.950058 -0.000000 -0.000001 0.000001 0.034787 0.692675 -5.749532 0.034783 0.692658 -5.749535 0.008685 0.346766 -2.874661 -0.000000 -0.000000 0.000003 0.034596 0.690758 -5.733557 0.034974 0.694569 -5.765510 0.008692 0.346760 -2.874659 0.000002 0.000000 0.000000 0.034787 0.692675 -5.749533 0.034781 0.692659 -5.749538 0.008680 0.346770 -2.874658 -0.000001 0.000001 0.000002 0.423970 4.728280 -5.257533 0.022937 -3.361932 -6.257719 0.008686 0.346764 -2.874663 -0.000001 0.000001 0.000001 4.560565 17.785939 6.871937 -20.678965 -22.769390 46.368225 0.000177 77.767134 -0.000187 -14.749121 -5.426133 -6.264574 -1.846991 -3.340672 -6.548761 5.119883 -13.941094 -0.598915 -1.023827 -2.509184 -2.381916 -0.000001 0.000005 -0.000003 0.035038 -0.698650 5.742679 -0.000006 0.000009 0.000002 0.000001 -0.000002 -0.000001 0.000000 -0.000001 0.000000 0.035038 -0.698650 5.742678 -0.000012 0.000005 0.000020 0.000009 0.000002 -0.000007 0.000001 -0.000000 -0.000001 0.035045 -0.698648 5.742680 -0.000012 0.000006 0.000005 -0.000000 -0.000003 -0.000000 -0.000002 0.000000 0.000001 0.035038 -0.698650 5.742678 -0.000012 0.000003 0.000019 0.000001 0.000003 -0.000005 -0.000000 0.000001 -0.000003 11.753429 10.357481 29.916232 38.831678 -8.597797 -3.079528 -30.451166 10.571909 -22.526778 -23.305162 -0.000013 0.000001 0.000000 -0.000001 0.000000 -43.713962 7.581270 -22.569428 18.550744 -9.113266 5.661642 28.392705 -10.838395 13.813329 -0.633843 0.000007 -0.000002 -0.000000 -0.000000 -0.000000 
